<svg xmlns="http://www.w3.org/2000/svg" xmlns:xlink="http://www.w3.org/1999/xlink" width="800" height="600" viewBox="0 0 800 600"><rect width="100%" height="100%" fill="#DDDDDD"/><path d="M183.09 329.76L183.09 329.76Q186.41 329.76 188.92 328.80Q191.43 327.85 193.15 326.16Q194.86 324.47 195.73 322.13Q196.61 319.78 196.61 317.06L196.61 317.06Q196.61 310.57 193.01 307.25Q189.41 303.92 183.09 303.92L183.09 303.92Q176.77 303.92 173.17 307.25Q169.57 310.57 169.57 317.06L169.57 317.06Q169.57 319.78 170.45 322.13Q171.32 324.47 173.03 326.16Q174.75 327.85 177.26 328.80Q179.77 329.76 183.09 329.76ZM183.09 269.86L183.09 269.86Q180.09 269.86 177.91 270.79Q175.73 271.71 174.29 273.27Q172.84 274.82 172.16 276.84Q171.48 278.85 171.48 281.09L171.48 281.09Q171.48 283.43 172.05 285.64Q172.63 287.85 173.99 289.56Q175.35 291.28 177.59 292.32Q179.82 293.35 183.09 293.35L183.09 293.35Q186.36 293.35 188.59 292.32Q190.83 291.28 192.19 289.56Q193.55 287.85 194.13 285.64Q194.70 283.43 194.70 281.09L194.70 281.09Q194.70 278.85 193.99 276.84Q193.28 274.82 191.86 273.27Q190.45 271.71 188.27 270.79Q186.09 269.86 183.09 269.86ZM196.39 298.31L196.39 298.31Q203.58 300.65 207.02 305.48Q210.45 310.30 210.45 317.28L210.45 317.28Q210.45 322.51 208.46 326.76Q206.47 331.01 202.87 334.01Q199.28 337.01 194.24 338.64Q189.19 340.28 183.09 340.28L183.09 340.28Q176.99 340.28 171.94 338.64Q166.90 337.01 163.31 334.01Q159.71 331.01 157.72 326.76Q155.73 322.51 155.73 317.28L155.73 317.28Q155.73 310.30 159.16 305.48Q162.60 300.65 169.79 298.31L169.79 298.31Q164.07 295.91 161.21 291.50Q158.35 287.08 158.35 280.87L158.35 280.87Q158.35 276.40 160.17 272.53Q162.00 268.66 165.27 265.80Q168.54 262.94 173.09 261.33Q177.64 259.72 183.09 259.72L183.09 259.72Q188.54 259.72 193.09 261.33Q197.64 262.94 200.91 265.80Q204.18 268.66 206.01 272.53Q207.83 276.40 207.83 280.87L207.83 280.87Q207.83 287.08 204.97 291.50Q202.11 295.91 196.39 298.31ZM275.19 300L275.19 300Q275.19 310.30 272.99 317.90Q270.78 325.51 266.88 330.47Q262.99 335.43 257.67 337.85Q252.36 340.28 246.20 340.28L246.20 340.28Q240.04 340.28 234.78 337.85Q229.52 335.43 225.65 330.47Q221.78 325.51 219.60 317.90Q217.42 310.30 217.42 300L217.42 300Q217.42 289.64 219.60 282.07Q221.78 274.49 225.65 269.53Q229.52 264.57 234.78 262.15Q240.04 259.72 246.20 259.72L246.20 259.72Q252.36 259.72 257.67 262.15Q262.99 264.57 266.88 269.53Q270.78 274.49 272.99 282.07Q275.19 289.64 275.19 300ZM261.30 300L261.30 300Q261.30 291.44 260.04 285.83Q258.79 280.22 256.69 276.89Q254.59 273.57 251.87 272.23Q249.14 270.90 246.20 270.90L246.20 270.90Q243.31 270.90 240.61 272.23Q237.92 273.57 235.85 276.89Q233.77 280.22 232.55 285.83Q231.32 291.44 231.32 300L231.32 300Q231.32 308.56 232.55 314.17Q233.77 319.78 235.85 323.11Q237.92 326.43 240.61 327.77Q243.31 329.10 246.20 329.10L246.20 329.10Q249.14 329.10 251.87 327.77Q254.59 326.43 256.69 323.11Q258.79 319.78 260.04 314.17Q261.30 308.56 261.30 300ZM338.41 300L338.41 300Q338.41 310.30 336.21 317.90Q334.00 325.51 330.10 330.47Q326.21 335.43 320.89 337.85Q315.58 340.28 309.42 340.28L309.42 340.28Q303.26 340.28 298.00 337.85Q292.74 335.43 288.87 330.47Q285.00 325.51 282.82 317.90Q280.64 310.30 280.64 300L280.64 300Q280.64 289.64 282.82 282.07Q285.00 274.49 288.87 269.53Q292.74 264.57 298.00 262.15Q303.26 259.72 309.42 259.72L309.42 259.72Q315.58 259.72 320.89 262.15Q326.21 264.57 330.10 269.53Q334.00 274.49 336.21 282.07Q338.41 289.64 338.41 300ZM324.52 300L324.52 300Q324.52 291.44 323.26 285.83Q322.01 280.22 319.91 276.89Q317.81 273.57 315.09 272.23Q312.36 270.90 309.42 270.90L309.42 270.90Q306.53 270.90 303.83 272.23Q301.14 273.57 299.07 276.89Q296.99 280.22 295.77 285.83Q294.54 291.44 294.54 300L294.54 300Q294.54 308.56 295.77 314.17Q296.99 319.78 299.07 323.11Q301.14 326.43 303.83 327.77Q306.53 329.10 309.42 329.10L309.42 329.10Q312.36 329.10 315.09 327.77Q317.81 326.43 319.91 323.11Q322.01 319.78 323.26 314.17Q324.52 308.56 324.52 300ZM424.96 321.36L417.82 328.39L399.35 309.92L380.71 328.50L373.57 321.47L392.21 302.78L374.44 285.01L381.52 277.93L399.29 295.69L416.95 278.04L424.14 285.12L406.43 302.83L424.96 321.36ZM509.16 260.60L485.78 289.21L483.06 292.59Q485.35 291.44 487.99 290.82Q490.63 290.19 493.69 290.19L493.69 290.19Q498.15 290.19 502.38 291.66Q506.60 293.13 509.82 296.10Q513.03 299.07 515.00 303.49Q516.96 307.90 516.96 313.79L516.96 313.79Q516.96 319.29 514.94 324.12Q512.92 328.94 509.27 332.54Q505.62 336.13 500.47 338.20Q495.32 340.28 489.11 340.28L489.11 340.28Q482.79 340.28 477.77 338.26Q472.76 336.24 469.22 332.62Q465.67 328.99 463.79 323.90Q461.91 318.80 461.91 312.59L461.91 312.59Q461.91 307.03 464.17 301.17Q466.44 295.31 471.18 288.99L471.18 288.99L489.98 263.76Q490.96 262.45 492.84 261.52Q494.72 260.60 497.17 260.60L497.17 260.60L509.16 260.60ZM488.83 329.27L488.83 329.27Q492.05 329.27 494.75 328.18Q497.45 327.09 499.38 325.12Q501.32 323.16 502.41 320.52Q503.50 317.88 503.50 314.77L503.50 314.77Q503.50 311.39 502.46 308.69Q501.42 306.00 499.52 304.11Q497.61 302.23 494.94 301.25Q492.27 300.27 489.05 300.27L489.05 300.27Q485.84 300.27 483.22 301.36Q480.61 302.45 478.75 304.39Q476.90 306.32 475.86 308.97Q474.83 311.61 474.83 314.66L474.83 314.66Q474.83 317.93 475.73 320.63Q476.63 323.33 478.40 325.23Q480.17 327.14 482.79 328.20Q485.40 329.27 488.83 329.27ZM581.05 300L581.05 300Q581.05 310.30 578.84 317.90Q576.63 325.51 572.74 330.47Q568.84 335.43 563.53 337.85Q558.21 340.28 552.05 340.28L552.05 340.28Q545.90 340.28 540.64 337.85Q535.38 335.43 531.51 330.47Q527.64 325.51 525.46 317.90Q523.28 310.30 523.28 300L523.28 300Q523.28 289.64 525.46 282.07Q527.64 274.49 531.51 269.53Q535.38 264.57 540.64 262.15Q545.90 259.72 552.05 259.72L552.05 259.72Q558.21 259.72 563.53 262.15Q568.84 264.57 572.74 269.53Q576.63 274.49 578.84 282.07Q581.05 289.64 581.05 300ZM567.15 300L567.15 300Q567.15 291.44 565.90 285.83Q564.64 280.22 562.55 276.89Q560.45 273.57 557.72 272.23Q555.00 270.90 552.05 270.90L552.05 270.90Q549.17 270.90 546.47 272.23Q543.77 273.57 541.70 276.89Q539.63 280.22 538.40 285.83Q537.18 291.44 537.18 300L537.18 300Q537.18 308.56 538.40 314.17Q539.63 319.78 541.70 323.11Q543.77 326.43 546.47 327.77Q549.17 329.10 552.05 329.10L552.05 329.10Q555.00 329.10 557.72 327.77Q560.45 326.43 562.55 323.11Q564.64 319.78 565.90 314.17Q567.15 308.56 567.15 300ZM644.27 300L644.27 300Q644.27 310.30 642.06 317.90Q639.85 325.51 635.96 330.47Q632.06 335.43 626.75 337.85Q621.43 340.28 615.27 340.28L615.27 340.28Q609.12 340.28 603.86 337.85Q598.60 335.43 594.73 330.47Q590.86 325.51 588.68 317.90Q586.50 310.30 586.50 300L586.50 300Q586.50 289.64 588.68 282.07Q590.86 274.49 594.73 269.53Q598.60 264.57 603.86 262.15Q609.12 259.72 615.27 259.72L615.27 259.72Q621.43 259.72 626.75 262.15Q632.06 264.57 635.96 269.53Q639.85 274.49 642.06 282.07Q644.27 289.64 644.27 300ZM630.37 300L630.37 300Q630.37 291.44 629.12 285.83Q627.86 280.22 625.77 276.89Q623.67 273.57 620.94 272.23Q618.22 270.90 615.27 270.90L615.27 270.90Q612.39 270.90 609.69 272.23Q606.99 273.57 604.92 276.89Q602.85 280.22 601.62 285.83Q600.40 291.44 600.40 300L600.40 300Q600.40 308.56 601.62 314.17Q602.85 319.78 604.92 323.11Q606.99 326.43 609.69 327.77Q612.39 329.10 615.27 329.10L615.27 329.10Q618.22 329.10 620.94 327.77Q623.67 326.43 625.77 323.11Q627.86 319.78 629.12 314.17Q630.37 308.56 630.37 300Z" fill="#999999"/></svg>